<svg width="24" height="24" viewBox="0 0 24 24" fill="none" xmlns="http://www.w3.org/2000/svg">
<path d="M14.6562 20.3133C13.9306 21.042 12.944 21.4506 11.9157 21.4482L10.7113 21.4482C8.57123 21.4483 6.83636 19.7134 6.83636 17.5734L6.83636 17.5733L6.83636 7.71392C6.83289 7.51312 6.9928 7.34751 7.19363 7.34402C7.39443 7.34054 7.56004 7.50046 7.56353 7.70129C7.56361 7.70551 7.56361 7.7097 7.56353 7.71392L7.563 17.5728C7.56332 19.3111 8.97243 20.7202 10.7108 20.7206L11.9162 20.7206C13.6546 20.7202 15.0637 19.3111 15.064 17.5728L15.064 4.69061C15.0636 3.4371 14.0476 2.42102 12.7941 2.42068H11.89C10.6491 2.45091 9.65026 3.44971 9.62006 4.69061L9.62001 16.2429C9.61996 17.0117 10.2431 17.635 11.0119 17.635C11.012 17.635 11.012 17.635 11.0121 17.635L11.6148 17.635C12.3729 17.6098 12.9817 17.0011 13.0069 16.2429L13.0069 7.71344C13.0034 7.51264 13.1633 7.34703 13.3642 7.34353C13.565 7.34006 13.7305 7.5 13.7341 7.70081C13.7341 7.70502 13.7341 7.70922 13.7341 7.71344L13.7341 16.2429C13.6964 17.3974 12.7693 18.3245 11.6148 18.3622L11.0121 18.3622C9.84171 18.3622 8.89288 17.4134 8.89288 16.2429L8.89288 4.69061C8.89288 3.03536 10.2347 1.69353 11.8899 1.6935C11.8899 1.6935 11.8899 1.6935 11.89 1.6935L12.7941 1.6935C14.4493 1.6935 15.7911 3.03533 15.7912 4.69056C15.7912 4.69056 15.7912 4.69056 15.7912 4.69061L15.7912 17.5728C15.7935 18.6011 15.3849 19.5877 14.6562 20.3133Z" fill="white"/>
</svg>
