<svg width="13" height="10" viewBox="0 0 13 10" fill="none" xmlns="http://www.w3.org/2000/svg">
<path d="M1.2216 3.0824C1.3826 3.196 1.8679 3.5334 2.6775 4.0945C3.4872 4.6556 4.1075 5.0876 4.5384 5.3905C4.5857 5.4237 4.6863 5.4959 4.8401 5.6072C4.994 5.7185 5.1219 5.8085 5.2236 5.8772C5.3254 5.9458 5.4485 6.0227 5.593 6.1079C5.7374 6.1931 5.8736 6.2571 6.0014 6.2995C6.1293 6.3422 6.2477 6.3634 6.3565 6.3634H6.3637H6.3708C6.4797 6.3634 6.5981 6.3422 6.726 6.2995C6.8538 6.2571 6.9901 6.193 7.1344 6.1079C7.2788 6.0226 7.4018 5.9457 7.5037 5.8772C7.6055 5.8085 7.7332 5.7185 7.8872 5.6072C8.041 5.4958 8.1417 5.4237 8.1891 5.3905C8.6246 5.0876 9.7327 4.3181 11.5129 3.0822C11.8585 2.8409 12.1473 2.5496 12.3793 2.2087C12.6114 1.8679 12.7274 1.5104 12.7274 1.1364C12.7274 0.8239 12.6148 0.5563 12.3899 0.3338C12.165 0.1112 11.8986 0 11.591 0H1.1363C0.7718 0 0.4912 0.1231 0.2947 0.3693C0.0981997 0.6155 0 0.9233 0 1.2925C0 1.5908 0.1303 1.9141 0.3906 2.2621C0.651 2.6101 0.9281 2.8836 1.2216 3.0824Z" fill="white"/>
<path d="M12.017 3.84216C10.4642 4.89327 9.285 5.71007 8.4802 6.29257C8.2103 6.49137 7.9914 6.64647 7.8232 6.75767C7.6551 6.86897 7.4315 6.98267 7.1521 7.09857C6.8728 7.21467 6.6125 7.27257 6.3709 7.27257H6.3637H6.3566C6.1151 7.27257 5.8546 7.21467 5.5753 7.09857C5.296 6.98267 5.0723 6.86897 4.9042 6.75767C4.7361 6.64647 4.5171 6.49137 4.2473 6.29257C3.608 5.82387 2.4314 5.00697 0.7174 3.84216C0.4475 3.66236 0.2083 3.45627 0 3.22437V8.86347C0 9.17607 0.1112 9.44347 0.3338 9.66607C0.5563 9.88867 0.8239 9.99997 1.1364 9.99997H11.5911C11.9035 9.99997 12.1711 9.88867 12.3936 9.66607C12.6162 9.44347 12.7274 9.17617 12.7274 8.86347V3.22437C12.5238 3.45147 12.2871 3.65756 12.017 3.84216Z" fill="white"/>
</svg>
