<svg width="13" height="13" viewBox="0 0 13 13" fill="none" xmlns="http://www.w3.org/2000/svg">
<path d="M11.9898 9.67889L10.0957 7.78459C9.7184 7.40879 9.0937 7.42029 8.7032 7.81079L7.749 8.76489C7.6887 8.73159 7.6263 8.69689 7.5607 8.66009C6.9581 8.32619 6.1333 7.86859 5.2654 6.99999C4.395 6.12969 3.9369 5.30359 3.602 4.70069C3.5666 4.63679 3.5328 4.57519 3.4993 4.51669L4.1398 3.87719L4.4546 3.56189C4.8457 3.17079 4.8564 2.54619 4.48 2.16939L2.5859 0.274886C2.2096 -0.101514 1.5845 -0.0900142 1.1935 0.301086L0.6597 0.837986L0.6743 0.852386C0.4953 1.08079 0.345701 1.34429 0.234401 1.62829C0.131801 1.89869 0.0678999 2.15679 0.0386999 2.41529C-0.2114 4.48869 0.7361 6.38369 3.3074 8.95508C6.8618 12.5093 9.7262 12.2408 9.8498 12.2277C10.1189 12.1955 10.3769 12.1312 10.639 12.0294C10.9206 11.9194 11.1838 11.77 11.4121 11.5914L11.4238 11.6018L11.9646 11.0722C12.3548 10.6812 12.366 10.0564 11.9898 9.67889Z" fill="white"/>
</svg>
